<svg width="58" height="58" viewBox="0 0 58 58" fill="none" xmlns="http://www.w3.org/2000/svg">
<circle cx="29.0301" cy="29.0068" r="26.5301" fill="white" stroke="#4C9797" stroke-width="4"/>
<g clip-path="url(#clip0_10_100)">
<path d="M29.8828 14.939L30.1405 17.2758C31.0034 17.4507 31.9262 17.4731 32.7305 17.8808C33.0832 18.0596 33.3929 18.5185 33.6012 18.579C34.4185 18.8157 35.8202 18.8276 36.7886 19.0406C39.795 19.7047 42.3837 20.9882 43.9455 23.776C44.2045 24.2389 44.8969 26.2351 44.9945 26.3324C45.1168 26.4547 45.86 26.6402 46.201 26.8887C48.3446 28.4562 48.4005 34.2594 46.611 36.0466C46.1476 36.5094 45.178 36.7291 44.9958 36.9132C44.8982 37.0105 44.2214 38.9856 43.9468 39.4696C41.1616 44.3799 35.2033 44.6929 30.1952 44.7744C24.8564 44.8612 17.5095 44.8625 14.4887 39.4696C14.2297 39.0067 13.5373 37.0105 13.4397 36.9132C13.3421 36.8158 12.5247 36.541 12.1798 36.2793C9.96859 34.6066 10.0063 28.518 12.2345 26.8887C12.5755 26.6388 13.3186 26.4534 13.441 26.3324C13.5503 26.2233 13.9798 24.8175 14.1399 24.4743C15.811 20.9066 18.6483 19.6692 22.2964 18.9078C23.0356 18.7539 24.0378 18.7592 24.6989 18.5738C25.1349 18.4515 25.7545 17.8163 26.3584 17.6204C27.0156 17.406 27.6364 17.4402 28.2924 17.2732L28.5774 14.9995C26.6512 14.4236 26.5861 11.641 28.4381 10.9111C31.127 9.8512 32.6901 14.0619 29.8854 14.9351L29.8828 14.939ZM28.2768 22.4584C25.3835 22.5031 20.1593 22.7201 18.3047 25.2699C16.2574 28.0854 16.2496 36.6291 19.204 38.912C22.0621 41.1212 30.6663 40.9911 34.2103 40.5518C36.6818 40.2454 39.5347 39.5603 40.6488 37.0631C41.9672 34.1082 42.0492 26.8059 39.4345 24.5203C37.1308 22.5057 31.2559 22.4123 28.2768 22.4584Z" fill="url(#paint0_linear_10_100)"/>
<path d="M23.3194 29.1545C26.0564 28.5167 26.1059 33.811 24.0638 34.1161C21.4869 34.5001 21.6691 29.5398 23.3194 29.1545Z" fill="url(#paint1_linear_10_100)"/>
<path d="M34.2546 29.1571C36.9552 28.5996 36.8263 33.8255 34.9977 34.1161C32.3388 34.5395 32.4234 29.5345 34.2546 29.1571Z" fill="url(#paint2_linear_10_100)"/>
</g>
<circle cx="47.8861" cy="10.7411" r="8.44913" fill="white"/>
<circle cx="47.8861" cy="10.7411" r="5.74692" fill="#58D228"/>
<defs>
<linearGradient id="paint0_linear_10_100" x1="15.8355" y1="43.7514" x2="78.5357" y2="7.40706" gradientUnits="userSpaceOnUse">
<stop stop-color="#184040"/>
<stop offset="1" stop-color="#3EA6A6"/>
</linearGradient>
<linearGradient id="paint1_linear_10_100" x1="22.5808" y1="33.9832" x2="29.3411" y2="31.5731" gradientUnits="userSpaceOnUse">
<stop stop-color="#184040"/>
<stop offset="1" stop-color="#3EA6A6"/>
</linearGradient>
<linearGradient id="paint2_linear_10_100" x1="33.4151" y1="33.9878" x2="40.176" y2="31.5709" gradientUnits="userSpaceOnUse">
<stop stop-color="#184040"/>
<stop offset="1" stop-color="#3EA6A6"/>
</linearGradient>
<clipPath id="clip0_10_100">
<rect width="37.3452" height="34.05" fill="white" transform="translate(10.5387 10.7454)"/>
</clipPath>
</defs>
</svg>
