<svg width="48" height="48" viewBox="0 0 48 48" fill="none" xmlns="http://www.w3.org/2000/svg">
<circle cx="23.7975" cy="24.2147" r="23.5807" fill="#184040"/>
<g clip-path="url(#clip0_43_94)">
<path d="M24.3479 11.8772L24.559 13.8987C25.2658 14.05 26.0216 14.0694 26.6804 14.422C26.9693 14.5767 27.223 14.9738 27.3936 15.0261C28.0631 15.2309 29.2112 15.2411 30.0043 15.4254C32.4669 15.9999 34.5872 17.1102 35.8665 19.5219C36.0786 19.9223 36.6457 21.6492 36.7257 21.7334C36.8259 21.8392 37.4346 21.9996 37.7139 22.2146C39.4697 23.5706 39.5155 28.5909 38.0497 30.1369C37.6702 30.5373 36.876 30.7273 36.7268 30.8866C36.6468 30.9708 36.0925 32.6794 35.8675 33.0981C33.5862 37.3459 28.7059 37.6167 24.6038 37.6872C20.2309 37.7623 14.2131 37.7634 11.7388 33.0981C11.5267 32.6976 10.9595 30.9708 10.8796 30.8866C10.7996 30.8024 10.1301 30.5646 9.84765 30.3383C8.03644 28.8912 8.06736 23.6241 9.89242 22.2146C10.1717 21.9985 10.7804 21.8381 10.8806 21.7334C10.9702 21.639 11.322 20.4229 11.4531 20.126C12.8219 17.0397 15.1459 15.9692 18.134 15.3105C18.7395 15.1774 19.5603 15.1819 20.1019 15.0215C20.459 14.9157 20.9664 14.3663 21.4611 14.1968C21.9994 14.0113 22.5079 14.0409 23.0452 13.8964L23.2787 11.9295C21.7009 11.4313 21.6476 9.02408 23.1646 8.39271C25.367 7.4758 26.6474 11.1184 24.35 11.8738L24.3479 11.8772ZM23.0324 18.382C20.6626 18.4207 16.3835 18.6084 14.8644 20.8142C13.1875 23.2498 13.1812 30.6409 15.6011 32.6157C17.9421 34.5269 24.9897 34.4143 27.8925 34.0343C29.9169 33.7693 32.2537 33.1766 33.1662 31.0163C34.2461 28.4601 34.3133 22.1429 32.1716 20.1658C30.2847 18.423 25.4726 18.3422 23.0324 18.382Z" fill="#B8F9F9"/>
<path d="M18.9717 24.1746C21.2136 23.6229 21.2541 28.2029 19.5815 28.4668C17.4707 28.799 17.6199 24.5079 18.9717 24.1746Z" fill="#B8F9F9"/>
<path d="M27.9285 24.1769C30.1406 23.6945 30.035 28.2154 28.5373 28.4668C26.3593 28.8331 26.4286 24.5034 27.9285 24.1769Z" fill="#B8F9F9"/>
</g>
<defs>
<clipPath id="clip0_43_94">
<rect width="30.5889" height="29.456" fill="white" transform="translate(8.50314 8.24927)"/>
</clipPath>
</defs>
</svg>
