<svg width="333" height="405" viewBox="0 0 333 405" fill="none" xmlns="http://www.w3.org/2000/svg">
<path opacity="0.31" d="M397.23 189.438C389.247 189.483 378.834 184.118 373.565 172.032C367.064 157.12 370.446 141.067 373.711 125.543C373.96 124.358 374.21 123.177 374.452 122L374.639 121.098C378.355 103.134 382.199 84.5548 382.261 65.8523C382.298 54.442 380.025 42.7945 375.858 33.0568C370.875 21.412 363.307 12.8248 353.97 8.22434C345.213 3.9102 335.38 3.49005 327.665 7.10174C320.792 10.3185 316.135 16.2575 314.196 24.2748C310.993 37.5247 313.607 51.3684 316.138 64.7575C316.462 66.4765 316.784 68.181 317.091 69.8682C317.256 70.7827 317.426 71.7039 317.596 72.6343C321.134 91.932 325.144 113.805 312.269 129.907C308.328 134.835 303.916 137.401 298.78 137.753C285.353 138.674 270.022 124.128 257.704 112.44C252.902 107.883 248.756 103.949 245.235 101.394C223.011 85.2719 203.123 80.0512 184.529 85.4773L183.01 82.1877L176.051 85.4004L174.64 82.3441C174.104 81.1817 172.727 80.6741 171.564 81.2109L153.77 89.4243L153.424 88.6741C153.145 88.0724 152.432 87.81 151.831 88.087L134.27 96.1931C133.669 96.4714 133.406 97.1845 133.683 97.7862L134.029 98.5364L126.317 102.096C125.154 102.633 124.647 104.01 125.184 105.173L127.499 110.188L109.863 118.379C108.445 119.034 107.828 120.713 108.481 122.131C109.136 123.549 110.815 124.167 112.233 123.513L129.878 115.342L132.223 120.421C132.759 121.584 134.137 122.091 135.299 121.554L143.011 117.994L143.357 118.745C143.636 119.346 144.349 119.609 144.95 119.332L162.511 111.226C163.112 110.947 163.375 110.234 163.098 109.633L162.752 108.882L180.546 100.669C181.709 100.132 182.216 98.7551 181.68 97.5927L180.626 95.3091L180.269 94.535L187.229 91.3223L185.531 87.643C203.289 82.6025 222.401 87.7424 243.852 103.304C247.248 105.768 251.342 109.652 256.083 114.151C268.736 126.157 284.483 141.1 298.945 140.107C304.696 139.712 309.8 136.777 314.115 131.38C327.662 114.437 323.548 92.0009 319.919 72.2075C319.749 71.2797 319.58 70.3586 319.414 69.4467C319.107 67.7542 318.785 66.0431 318.458 64.3188C315.976 51.1749 313.406 37.5857 316.493 24.8288C318.257 17.5312 322.468 12.1409 328.668 9.23694C335.739 5.92612 344.81 6.33831 352.93 10.3397C361.755 14.6883 368.935 22.8633 373.693 33.9846C377.735 43.4333 379.942 54.7468 379.905 65.8443C379.844 84.3096 376.024 102.77 372.331 120.62L372.145 121.521C371.902 122.694 371.654 123.873 371.405 125.055C368.06 140.944 364.602 157.369 371.405 172.973C373.67 178.168 377.328 182.88 381.706 186.24C386.481 189.905 391.855 191.825 397.245 191.795L397.232 189.436L397.23 189.438Z" fill="#3B6FA3"/>
<path d="M174.944 77.68L181.982 92.9272C182.519 94.0896 182.011 95.4667 180.849 96.0035L135.602 116.889C134.44 117.426 133.063 116.918 132.526 115.756L125.488 100.508C124.952 99.3461 125.459 97.969 126.622 97.4322L171.868 76.5468C173.03 76.01 174.407 76.5176 174.944 77.68Z" fill="#E2F0FE"/>
<mask id="mask0_39_97" style="mask-type:luminance" maskUnits="userSpaceOnUse" x="125" y="76" width="58" height="42">
<path d="M174.944 77.68L181.982 92.9272C182.519 94.0896 182.011 95.4667 180.849 96.0035L135.602 116.889C134.44 117.426 133.063 116.918 132.526 115.756L125.488 100.508C124.952 99.3461 125.459 97.969 126.622 97.4322L171.868 76.5468C173.03 76.01 174.407 76.5176 174.944 77.68Z" fill="white"/>
</mask>
<g mask="url(#mask0_39_97)">
<path opacity="0.14" d="M179.301 85.301L125.788 109.386L121.442 96.0274L140.435 81.8643L176.809 71.8854L179.301 85.301Z" fill="#62B4B4"/>
</g>
<path d="M153.727 84.0114L163.401 104.968C163.679 105.57 163.416 106.283 162.814 106.562L145.254 114.668C144.652 114.946 143.939 114.682 143.661 114.081L133.987 93.1235C133.708 92.5217 133.972 91.8087 134.574 91.5303L152.134 83.4243C152.736 83.1459 153.449 83.4097 153.727 84.0114Z" fill="#62B4B4"/>
<path d="M161.235 104.074C161.436 104.506 161.246 105.019 160.814 105.219L145.553 112.263C145.121 112.464 144.608 112.274 144.408 111.842C144.208 111.41 144.398 110.897 144.83 110.697L160.09 103.652C160.522 103.452 161.035 103.642 161.235 104.074Z" fill="#E2F0FE"/>
<path d="M159.589 100.507C159.789 100.939 159.6 101.452 159.168 101.652L143.907 108.697C143.475 108.897 142.962 108.707 142.762 108.275C142.562 107.843 142.752 107.33 143.184 107.13L158.444 100.086C158.876 99.8856 159.389 100.075 159.589 100.507Z" fill="#E2F0FE"/>
<path d="M157.943 96.9392C158.143 97.3713 157.954 97.8843 157.522 98.0844L142.261 105.129C141.829 105.329 141.316 105.139 141.116 104.707C140.916 104.275 141.105 103.762 141.537 103.562L156.798 96.5178C157.23 96.3176 157.743 96.5072 157.943 96.9392Z" fill="#E2F0FE"/>
<path d="M156.297 93.3726C156.497 93.8047 156.308 94.3176 155.876 94.5177L140.615 101.562C140.183 101.762 139.67 101.573 139.47 101.141C139.27 100.709 139.459 100.196 139.891 99.9956L155.152 92.9511C155.584 92.751 156.097 92.9405 156.297 93.3726Z" fill="#E2F0FE"/>
<path d="M154.65 89.806C154.85 90.2381 154.66 90.751 154.228 90.9511L138.968 97.9956C138.535 98.1957 138.023 98.0062 137.822 97.5741C137.622 97.142 137.812 96.6291 138.244 96.429L153.504 89.3845C153.937 89.1844 154.449 89.3739 154.65 89.806Z" fill="#E2F0FE"/>
<path d="M153.003 86.2394C153.204 86.6714 153.014 87.1844 152.582 87.3845L137.321 94.4289C136.889 94.6291 136.376 94.4395 136.176 94.0075C135.976 93.5754 136.166 93.0625 136.598 92.8623L151.858 85.8179C152.29 85.6177 152.803 85.8073 153.003 86.2394Z" fill="#E2F0FE"/>
<path d="M127.822 105.566L130.192 110.699L112.538 118.849C111.12 119.504 109.441 118.885 108.786 117.467C108.131 116.049 108.75 114.369 110.168 113.715L127.822 105.565V105.566Z" fill="#62B4B4"/>
<path d="M176.34 80.7408L180.556 89.8743L187.515 86.6617L183.299 77.5283L176.34 80.7408Z" fill="#62B4B4"/>
<path d="M182.471 81.5621C201.741 74.963 222.37 79.9239 245.538 96.7312C249.06 99.2865 253.206 103.22 258.007 107.777C270.326 119.466 285.656 134.013 299.084 133.091C304.22 132.738 308.632 130.171 312.572 125.244C325.447 109.141 321.437 87.2692 317.899 67.9716C317.728 67.0425 317.56 66.12 317.394 65.2055C317.088 63.5183 316.766 61.8138 316.441 60.0948C313.912 46.7057 311.296 32.862 314.499 19.6121C316.439 11.5948 321.096 5.65574 327.968 2.43902C335.682 -1.17267 345.516 -0.752517 354.273 3.56162C363.61 8.16205 371.178 16.7492 376.162 28.3941C380.329 38.1318 382.602 49.7779 382.565 61.1895C382.503 79.8921 378.659 98.4714 374.943 116.436L374.756 117.337C374.512 118.513 374.264 119.694 374.015 120.88C370.749 136.404 367.368 152.457 373.869 167.369C379.137 179.455 389.551 184.821 397.534 184.775L397.547 187.135C392.157 187.165 386.782 185.245 382.008 181.58C377.63 178.22 373.971 173.508 371.707 168.313C364.905 152.709 368.362 136.283 371.707 120.395C371.956 119.212 372.204 118.034 372.447 116.861L372.634 115.96C376.328 98.1096 380.146 79.6496 380.207 61.1842C380.244 50.0881 378.037 38.7732 373.995 29.3245C369.237 18.2045 362.057 10.0282 353.233 5.67959C345.112 1.67824 336.042 1.26605 328.97 4.57687C322.77 7.47947 318.559 12.8712 316.795 20.1688C313.708 32.9256 316.278 46.5148 318.761 59.6587C319.087 61.3831 319.41 63.0928 319.716 64.7867C319.882 65.6985 320.05 66.6197 320.221 67.5474C323.851 87.3408 327.964 109.777 314.417 126.719C310.102 132.115 304.998 135.052 299.247 135.447C284.786 136.44 269.039 121.497 256.385 109.491C251.644 104.992 247.55 101.106 244.154 98.6437C221.653 82.3202 201.726 77.464 183.236 83.7967L182.471 81.5648V81.5621Z" fill="#62B4B4"/>
<path opacity="0.31" d="M207.238 298.691L218.226 289.761L207.417 276.461L196.43 285.391L195.9 284.738C195.001 283.633 193.377 283.465 192.27 284.363L190.158 286.079L189.859 285.711C189.509 285.281 188.876 285.215 188.446 285.565L185.913 287.623C185.483 287.973 185.417 288.606 185.767 289.036L186.066 289.403L184.869 290.376L184.57 290.008C184.22 289.578 183.587 289.512 183.157 289.862L180.624 291.92C180.194 292.27 180.128 292.903 180.478 293.333L180.777 293.7L165.892 305.797C164.787 306.696 164.618 308.32 165.516 309.425L168.18 312.705L163.239 316.721L164.899 318.763C152.574 328.871 138.666 340.083 123.444 344.942C116.927 347.022 103.477 348.263 86.6111 333.193C82.0037 329.077 77.8921 324.437 74.4779 320.441C73.8849 319.747 73.2876 318.995 72.6556 318.199C69.6129 314.368 66.1639 310.026 60.7363 309.001C52.9822 307.536 48.042 313.116 44.0725 317.599C43.5898 318.145 43.1141 318.682 42.641 319.199C41.3639 320.593 40.065 322.078 38.8079 323.518C32.1908 331.091 25.3474 338.923 15.9711 340.647C7.513 342.201 -1.39409 338.879 -7.85572 331.754C-20.783 317.5 -24.2663 300.32 -18.5058 279.233C-13.428 260.645 -2.19445 242.245 7.71797 226.009C9.21726 223.553 10.6333 221.233 12.0144 218.936C14.8216 214.268 17.9183 208.777 19.1509 202.674C20.5543 195.728 19.1904 189.096 15.4084 184.48C12.1743 180.53 7.00274 177.855 0.041708 176.529C-11.2154 174.386 -22.2849 175.302 -32.8587 179.257C-42.0281 182.685 -51.092 188.511 -59.7989 196.571C-75.3661 210.983 -87.5068 229.988 -98.3075 248.379L-105.992 261.47L-101.702 263.99L-94.0161 250.904C-83.4081 232.841 -71.5111 214.201 -56.4176 200.228C-48.1874 192.609 -39.6741 187.123 -31.1139 183.921C-21.4055 180.29 -11.2356 179.449 -0.887464 181.42C4.89736 182.522 9.08585 184.614 11.5617 187.636C14.3522 191.042 15.3662 196.295 14.2765 201.692C13.2006 207.017 10.345 212.063 7.75261 216.375C6.37967 218.657 4.96856 220.97 3.47254 223.418C-6.61133 239.935 -18.041 258.655 -23.3038 277.922C-26.2256 288.619 -26.9172 298.194 -25.4168 307.196C-23.7097 317.438 -19.0409 326.824 -11.5385 335.096C-10.083 336.701 -8.51954 338.141 -6.87014 339.409C0.123556 344.785 8.64845 347.053 16.8729 345.54C27.9547 343.502 35.7118 334.624 42.5565 326.792C43.851 325.311 45.0742 323.911 46.3113 322.561C46.8033 322.023 47.2988 321.464 47.8004 320.897C52.0507 316.097 55.1837 313.015 59.8147 313.889C63.4231 314.57 66.1372 317.988 68.762 321.293C69.394 322.089 70.0475 322.912 70.6985 323.673C74.2208 327.795 78.472 332.59 83.299 336.903C91.3299 344.079 107.42 355.28 124.959 349.681C141.069 344.539 155.373 333.009 168.04 322.622L169.715 324.683L174.656 320.667L177.388 324.03C178.287 325.135 179.911 325.303 181.017 324.406L195.902 312.309L196.201 312.677C196.551 313.107 197.183 313.173 197.614 312.823L200.146 310.765C200.577 310.415 200.643 309.782 200.292 309.352L199.994 308.984L201.191 308.012L201.49 308.38C201.84 308.81 202.473 308.876 202.903 308.526L205.435 306.468C205.866 306.118 205.932 305.485 205.582 305.055L205.283 304.687L207.395 302.971C208.5 302.072 208.669 300.449 207.771 299.343L207.241 298.69L207.238 298.691Z" fill="#3B6FA3"/>
<path d="M200.845 303.505C201.196 303.935 201.828 304.001 202.259 303.651L204.791 301.593C205.221 301.243 205.287 300.61 204.937 300.18L204.638 299.812L206.751 298.096C207.856 297.197 208.024 295.574 207.127 294.468L195.257 279.864C194.358 278.759 192.735 278.591 191.629 279.488L189.516 281.204L189.217 280.837C188.867 280.407 188.235 280.34 187.804 280.691L185.272 282.748C184.841 283.098 184.775 283.731 185.126 284.161L185.425 284.529L184.227 285.501L183.928 285.134C183.578 284.704 182.946 284.638 182.515 284.988L179.983 287.045C179.552 287.395 179.486 288.028 179.836 288.458L180.135 288.826L165.25 300.923C164.145 301.822 163.977 303.445 164.875 304.551L176.744 319.155C177.643 320.26 179.267 320.428 180.372 319.531L195.257 307.434L195.556 307.802C195.907 308.232 196.539 308.298 196.969 307.948L199.502 305.89C199.932 305.54 199.998 304.907 199.648 304.477L199.349 304.109L200.546 303.137L200.845 303.505Z" fill="#E2F0FE"/>
<mask id="mask1_39_97" style="mask-type:luminance" maskUnits="userSpaceOnUse" x="164" y="278" width="44" height="43">
<path d="M200.845 303.505C201.196 303.935 201.828 304.001 202.259 303.651L204.791 301.593C205.221 301.243 205.287 300.61 204.937 300.18L204.638 299.812L206.751 298.096C207.856 297.197 208.024 295.574 207.127 294.468L195.257 279.864C194.358 278.759 192.735 278.591 191.629 279.488L189.516 281.204L189.217 280.837C188.867 280.407 188.235 280.34 187.804 280.691L185.272 282.748C184.841 283.098 184.775 283.731 185.126 284.161L185.425 284.529L184.227 285.501L183.928 285.134C183.578 284.704 182.946 284.638 182.515 284.988L179.983 287.045C179.552 287.395 179.486 288.028 179.836 288.458L180.135 288.826L165.25 300.923C164.145 301.822 163.977 303.445 164.875 304.551L176.744 319.155C177.643 320.26 179.267 320.428 180.372 319.531L195.257 307.434L195.556 307.802C195.907 308.232 196.539 308.298 196.969 307.948L199.502 305.89C199.932 305.54 199.998 304.907 199.648 304.477L199.349 304.109L200.546 303.137L200.845 303.505Z" fill="white"/>
</mask>
<g mask="url(#mask1_39_97)">
<path opacity="0.14" d="M170.535 311.839L203.278 285.393L192.399 274.206L159.573 301.526L165.518 309.429L170.535 311.839Z" fill="#62B4B4"/>
</g>
<path d="M217.565 284.891L206.756 271.59L195.769 280.518L206.577 293.819L217.565 284.891Z" fill="#62B4B4"/>
<path d="M208.09 274.954L206.476 272.967L203.748 275.184L205.362 277.17L208.09 274.954Z" fill="white"/>
<path d="M210.784 278.27L209.17 276.284L206.443 278.5L208.057 280.487L210.784 278.27Z" fill="white"/>
<path d="M213.482 281.587L211.868 279.601L209.14 281.817L210.754 283.804L213.482 281.587Z" fill="white"/>
<path d="M216.17 284.905L214.556 282.918L211.828 285.135L213.442 287.121L216.17 284.905Z" fill="white"/>
<path d="M200.529 303.141L185.407 284.531L184.211 285.503L199.333 304.113L200.529 303.141Z" fill="#62B4B4"/>
<path d="M173.87 315.966L167.399 308.002L162.08 312.324L168.551 320.288L173.87 315.966Z" fill="#62B4B4"/>
<path d="M-8.01396 335.012C-9.66336 333.743 -11.2268 332.304 -12.6823 330.699C-20.1847 322.427 -24.8535 313.041 -26.5606 302.799C-28.061 293.797 -27.3694 284.221 -24.4476 273.525C-19.1848 254.258 -7.75516 235.537 2.32872 219.021C3.82346 216.573 5.23584 214.26 6.60879 211.977C9.20119 207.665 12.0567 202.62 13.1326 197.295C14.2224 191.898 13.2084 186.644 10.4179 183.238C7.9433 180.216 3.75356 178.125 -2.03128 177.023C-12.3794 175.052 -22.5493 175.893 -32.2577 179.523C-40.8183 182.724 -49.3316 188.211 -57.5614 195.83C-72.6549 209.804 -84.5515 228.445 -95.1599 246.507L-102.846 259.593L-107.135 257.071L-99.4489 243.985C-88.6486 225.593 -76.5079 206.588 -60.9404 192.178C-52.2334 184.117 -43.1696 178.291 -34.0005 174.861C-23.4254 170.907 -12.3563 169.989 -1.10011 172.134C5.86093 173.46 11.0321 176.133 14.2666 180.084C18.0483 184.7 19.4122 191.332 18.0091 198.279C16.7765 204.381 13.6781 209.872 10.8726 214.541C9.49145 216.838 8.07545 219.158 6.57617 221.614C-3.33499 237.849 -14.5698 256.25 -19.6476 274.837C-25.4081 295.925 -21.9248 313.105 -8.99753 327.359C-2.5359 334.484 6.37156 337.807 14.8293 336.251C24.2056 334.527 31.0489 326.696 37.666 319.123C38.9223 317.685 40.2221 316.197 41.4992 314.803C41.9723 314.287 42.4492 313.749 42.9307 313.204C46.8998 308.72 51.8404 303.141 59.5944 304.606C65.0221 305.631 68.4711 309.973 71.5138 313.804C72.1458 314.6 72.7434 315.353 73.336 316.046C76.7503 320.042 80.8632 324.682 85.4693 328.798C102.334 343.868 115.785 342.627 122.302 340.547C137.933 335.558 152.179 323.869 164.746 313.556L166.565 312.064L169.718 315.913L167.901 317.403C154.987 327.999 140.351 340.009 123.814 345.288C106.276 350.887 90.1846 339.686 82.1537 332.51C77.3268 328.197 73.0755 323.402 69.5532 319.28C68.9022 318.519 68.2487 317.696 67.6167 316.9C64.9919 313.596 62.2778 310.177 58.6694 309.497C54.0381 308.621 50.9051 311.703 46.6552 316.505C46.1535 317.071 45.6593 317.63 45.166 318.168C43.9289 319.519 42.7057 320.918 41.4112 322.4C34.5665 330.232 26.8095 339.11 15.7276 341.147C7.50282 342.659 -1.02208 340.391 -8.0154 335.016L-8.01396 335.012Z" fill="#62B4B4"/>
</svg>
