<svg width="120" height="121" viewBox="0 0 120 121" fill="none" xmlns="http://www.w3.org/2000/svg">
<circle cx="59.8904" cy="60.7795" r="59.8904" fill="url(#paint0_linear_38_94)"/>
<g clip-path="url(#clip0_38_94)">
<path d="M60.9593 35.366L61.4285 39.5524C62.9997 39.8657 64.6799 39.9057 66.1445 40.6361C66.7867 40.9565 67.3507 41.7786 67.7299 41.887C69.2181 42.3111 71.7705 42.3323 73.5336 42.7139C79.0079 43.9036 83.7215 46.2029 86.5653 51.1973C87.0369 52.0266 88.2977 55.6028 88.4754 55.7771C88.6982 55.9962 90.0513 56.3284 90.6722 56.7736C94.5754 59.5818 94.6773 69.9782 91.4187 73.1798C90.5751 74.009 88.8096 74.4025 88.4778 74.7323C88.3 74.9066 87.0677 78.4451 86.5677 79.312C81.4962 88.1088 70.6472 88.6695 61.528 88.8155C51.807 88.971 38.4293 88.9734 32.9289 79.312C32.4573 78.4828 31.1965 74.9066 31.0188 74.7323C30.8411 74.5579 29.3528 74.0656 28.7248 73.5967C24.6984 70.6001 24.7672 59.6925 28.8243 56.7736C29.4452 56.326 30.7984 55.9938 31.0212 55.7771C31.2202 55.5816 32.0023 53.0632 32.2938 52.4483C35.3366 46.0569 40.5029 43.84 47.1455 42.476C48.4916 42.2003 50.3163 42.2098 51.5202 41.8776C52.3141 41.6585 53.4422 40.5206 54.5418 40.1696C55.7385 39.7856 56.8689 39.8469 58.0633 39.5477L58.5823 35.4744C55.075 34.4425 54.9565 29.4576 58.3288 28.1501C63.2248 26.2512 66.071 33.7947 60.964 35.359L60.9593 35.366ZM58.0349 48.8368C52.7668 48.9169 43.2542 49.3056 39.8772 53.8736C36.1495 58.9175 36.1353 74.2234 41.5148 78.3132C46.7189 82.271 62.3859 82.0378 68.839 81.2509C73.3393 80.702 78.534 79.4746 80.5625 75.0008C82.9632 69.7072 83.1125 56.6252 78.3515 52.5307C74.1569 48.9216 63.4594 48.7543 58.0349 48.8368Z" fill="white"/>
<path d="M49.0082 60.8327C53.9919 59.6901 54.082 69.1748 50.3637 69.7213C45.6714 70.4093 46.0032 61.523 49.0082 60.8327Z" fill="white"/>
<path d="M68.9194 60.8375C73.8368 59.8386 73.6022 69.2007 70.2726 69.7214C65.431 70.48 65.585 61.5136 68.9194 60.8375Z" fill="white"/>
</g>
<defs>
<linearGradient id="paint0_linear_38_94" x1="16.9783" y1="117.006" x2="226.992" y2="6.00342" gradientUnits="userSpaceOnUse">
<stop stop-color="#184040"/>
<stop offset="1" stop-color="#3EA6A6"/>
</linearGradient>
<clipPath id="clip0_38_94">
<rect width="68" height="61" fill="white" transform="translate(25.7363 27.8532)"/>
</clipPath>
</defs>
</svg>
