<svg width="30" height="34" viewBox="0 0 30 34" fill="none" xmlns="http://www.w3.org/2000/svg">
<path fill-rule="evenodd" clip-rule="evenodd" d="M26.2846 17.1301C26.3121 17.0381 26.3157 16.9396 26.2939 16.8456C25.7745 14.6199 16.1322 8.2933 13.1022 7.2296C12.3129 6.95239 11.741 7.06402 11.4052 7.56039C10.4319 8.99707 12.4419 13.4645 13.6149 15.8005L19.6919 16.0445C20.044 16.0586 20.3195 16.3973 20.3072 16.8011C20.2949 17.2049 19.9995 17.5207 19.6473 17.5066L13.5121 17.2596C12.1917 19.5261 9.99817 23.7127 10.868 25.1998C10.9006 25.2556 10.9363 25.3081 10.9751 25.3558C11.2964 25.7509 11.8227 25.8547 12.5402 25.6648C15.6256 24.848 25.6298 19.3115 26.2846 17.1301Z" fill="#DDDDE4"/>
</svg>
