<svg width="41" height="41" viewBox="0 0 41 41" fill="none" xmlns="http://www.w3.org/2000/svg">
<circle cx="20.6709" cy="20.6351" r="20.266" fill="#07004D"/>
<g clip-path="url(#clip0_43_95)">
<path d="M30.8017 31.0908H11.0446L11.0431 26.751C11.0405 26.6849 11.0718 26.6233 11.0756 26.5584C11.2574 23.3489 13.4969 21.1235 16.6448 20.9929C19.6386 20.8687 22.7348 21.0629 25.7353 21.0271C28.939 21.4761 30.7127 23.8105 30.8024 27.041C30.8399 28.3932 30.7092 29.7412 30.8011 31.0905L30.8017 31.0908Z" fill="#ACC7FF"/>
<path d="M20.5695 9.61765C24.5465 9.33895 27.2184 13.76 25.1461 17.2628C23.2351 20.4932 18.6118 20.4945 16.6998 17.2628C14.7964 14.0445 16.9144 9.87376 20.5695 9.61765Z" fill="#ACC7FF"/>
</g>
<defs>
<clipPath id="clip0_43_95">
<rect width="19.7669" height="21.4857" fill="white" transform="translate(11.0432 9.60504)"/>
</clipPath>
</defs>
</svg>
